<svg width="125" height="26" viewBox="0 0 125 26" fill="none" xmlns="http://www.w3.org/2000/svg">
<path fill-rule="evenodd" clip-rule="evenodd" d="M15.833 10.4098C15.833 3.36419 11.796 1.34568 6.49154 1.34568H0V19.7911H6.45171C12.0329 19.7911 15.833 16.8224 15.833 10.4098ZM12.0329 10.4098C12.0329 15.3572 10.0933 17.0194 5.93748 17.0194H3.5228V4.11669H5.9766C9.3415 4.11669 12.0329 4.78882 12.0329 10.4098ZM31.5864 13.062C31.5864 8.78673 29.5679 5.6601 24.9363 5.6601C20.9782 5.6601 18.0493 7.91617 18.0493 12.626C18.0493 17.1396 20.7015 20.1084 25.6888 20.1084C27.3908 20.1084 28.8951 20.0294 30.5572 19.5543V17.0998C29.4093 17.3373 28.1027 17.5749 26.5195 17.5749C24.5408 17.5749 21.9277 16.9412 21.6901 13.934H31.5857L31.5864 13.062ZM27.8659 11.5577H21.6909C21.6909 9.81591 22.799 8.15372 24.7385 8.15372C27.1532 8.15372 27.8659 9.97451 27.8659 11.5577ZM45.4002 15.3572C45.4002 12.4283 42.4713 11.7164 40.7295 11.36C39.4236 11.0826 37.2465 10.8856 37.2465 9.61818C37.2465 8.31234 39.0673 8.11389 40.2544 8.11389C41.9962 8.11389 44.0546 8.47023 44.45 8.54918V6.09538C43.8163 6.01643 42.3127 5.69993 39.7003 5.69993C37.2067 5.69993 33.6839 6.49154 33.6839 9.97452C33.6839 13.2206 37.2067 13.8544 37.9585 14.0123C40.1356 14.5265 41.679 14.5663 41.679 15.9113C41.679 17.2577 39.7793 17.5742 38.4336 17.5742C36.8112 17.5742 35.1882 17.2186 33.8027 16.9021V19.5137C35.1483 19.7918 36.9293 20.0678 38.7899 20.0678C42.7885 20.0678 45.4002 18.326 45.4002 15.3572ZM51.2979 3.48297V0H47.8149V3.48297H51.2979ZM51.2979 19.7911V5.93677H47.8149V19.7911H51.2979ZM67.8436 8.07477V5.73904L62.1444 5.93677C61.7482 5.85782 61.3528 5.73904 60.2041 5.73904C57.2361 5.73904 54.4651 7.20421 54.4651 10.3707C54.4651 13.2206 56.246 14.21 56.6024 14.4084C56.0874 14.9227 54.623 15.8323 54.623 17.5343C54.623 22.4825 63.9645 19.0002 63.9645 21.5728C63.9645 22.7606 62.064 23.2357 60.0846 23.2357C58.1059 23.2357 55.177 22.602 55.177 22.602V25.0551C55.7311 25.1746 57.1166 25.6091 60.4808 25.6091C64.281 25.6091 67.5662 24.3822 67.5662 21.018C67.5662 15.3181 57.9872 18.8409 57.9872 16.7036C57.9872 16.0699 58.6209 15.5158 58.9772 15.2783C58.9772 15.2783 59.3328 15.3978 60.1643 15.3978C64.835 15.3978 66.0619 12.6666 66.0619 10.8458C66.0619 8.98517 65.3101 8.19355 64.9936 7.91688C65.8649 7.91617 66.9332 8.03494 67.8436 8.07477ZM62.7376 10.4496C62.7376 12.1118 61.9068 12.9831 60.2439 12.9831C58.8983 12.9831 57.948 12.1516 57.948 10.4496C57.948 9.10324 58.7397 8.11389 60.2439 8.11389C61.8272 8.11389 62.7376 8.98446 62.7376 10.4496ZM82.5685 19.7911V10.0535C82.5685 6.887 80.3516 5.73904 78.4525 5.73904C76.631 5.73904 74.5336 6.49154 73.0293 7.20421V5.93748H69.9027V19.7918H73.3849V9.53923C73.7811 9.34151 75.9184 8.74762 77.1858 8.74762C79.0457 8.74762 79.1254 10.1331 79.1254 10.8458V19.7918H82.5685V19.7911Z" fill="#FF3B1D"/>
<path fill-rule="evenodd" clip-rule="evenodd" d="M105.645 10.4098C105.645 3.36422 101.606 1.3457 96.3027 1.3457H89.8112V19.7911H96.2636C101.844 19.7911 105.645 16.8224 105.645 10.4098ZM101.844 10.4098C101.844 15.3572 99.9045 17.0194 95.7486 17.0194H93.334V4.11672H95.7885C99.1534 4.11672 101.844 4.78884 101.844 10.4098ZM125 19.7911L116.411 10.37L124.328 1.3457H119.776L112.413 10.4496V1.3457H108.931V19.7911H112.413V10.8451L120.092 19.7911H125Z" fill="white"/>
</svg>
