<svg width="24" height="24" viewBox="0 0 24 24" fill="none" xmlns="http://www.w3.org/2000/svg">
<path d="M7.5 20H2C1.73478 20 1.48043 19.8946 1.29289 19.7071C1.10536 19.5196 1 19.2652 1 19V12C1 11.7348 1.10536 11.4804 1.29289 11.2929C1.48043 11.1054 1.73478 11 2 11H7.5C8.69347 11 9.83807 11.4741 10.682 12.318C11.5259 13.1619 12 14.3065 12 15.5C12 16.6935 11.5259 17.8381 10.682 18.682C9.83807 19.5259 8.69347 20 7.5 20ZM3 18H7.5C8.16304 18 8.79893 17.7366 9.26777 17.2678C9.73661 16.7989 10 16.163 10 15.5C10 14.837 9.73661 14.2011 9.26777 13.7322C8.79893 13.2634 8.16304 13 7.5 13H3V18Z" fill="white"/>
<path d="M7 13H2C1.73478 13 1.48043 12.8946 1.29289 12.7071C1.10536 12.5196 1 12.2652 1 12V6C1 5.73478 1.10536 5.48043 1.29289 5.29289C1.48043 5.10536 1.73478 5 2 5H7C8.06087 5 9.07828 5.42143 9.82843 6.17157C10.5786 6.92172 11 7.93913 11 9C11 10.0609 10.5786 11.0783 9.82843 11.8284C9.07828 12.5786 8.06087 13 7 13ZM3 11H7C7.53043 11 8.03914 10.7893 8.41421 10.4142C8.78929 10.0391 9 9.53043 9 9C9 8.46957 8.78929 7.96086 8.41421 7.58579C8.03914 7.21071 7.53043 7 7 7H3V11ZM20 7H16C15.7348 7 15.4804 6.89464 15.2929 6.70711C15.1054 6.51957 15 6.26522 15 6C15 5.73478 15.1054 5.48043 15.2929 5.29289C15.4804 5.10536 15.7348 5 16 5H20C20.2652 5 20.5196 5.10536 20.7071 5.29289C20.8946 5.48043 21 5.73478 21 6C21 6.26522 20.8946 6.51957 20.7071 6.70711C20.5196 6.89464 20.2652 7 20 7ZM22 14H14C13.7348 14 13.4804 13.8946 13.2929 13.7071C13.1054 13.5196 13 13.2652 13 13C13 12.7348 13.1054 12.4804 13.2929 12.2929C13.4804 12.1054 13.7348 12 14 12H22C22.2652 12 22.5196 12.1054 22.7071 12.2929C22.8946 12.4804 23 12.7348 23 13C23 13.2652 22.8946 13.5196 22.7071 13.7071C22.5196 13.8946 22.2652 14 22 14Z" fill="white"/>
<path d="M18 20C16.6744 19.9984 15.4036 19.4711 14.4662 18.5338C13.5289 17.5964 13.0016 16.3256 13 15V13C13 11.6739 13.5268 10.4021 14.4645 9.46447C15.4021 8.52678 16.6739 8 18 8C19.3261 8 20.5979 8.52678 21.5355 9.46447C22.4732 10.4021 23 11.6739 23 13C23 13.2652 22.8946 13.5196 22.7071 13.7071C22.5196 13.8946 22.2652 14 22 14C21.7348 14 21.4804 13.8946 21.2929 13.7071C21.1054 13.5196 21 13.2652 21 13C21 12.2044 20.6839 11.4413 20.1213 10.8787C19.5587 10.3161 18.7956 10 18 10C17.2044 10 16.4413 10.3161 15.8787 10.8787C15.3161 11.4413 15 12.2044 15 13V15C14.9997 15.7295 15.2653 16.4342 15.7473 16.9819C16.2292 17.5296 16.8943 17.8827 17.618 17.9752C18.3416 18.0677 19.0742 17.8931 19.6783 17.4842C20.2825 17.0753 20.7169 16.4602 20.9 15.754C20.9652 15.4967 21.13 15.2759 21.3581 15.1402C21.5861 15.0044 21.8587 14.9648 22.116 15.03C22.3733 15.0952 22.5941 15.26 22.7298 15.4881C22.8656 15.7161 22.9052 15.9887 22.84 16.246C22.566 17.3211 21.9412 18.2741 21.0646 18.954C20.1879 19.634 19.1095 20.0021 18 20Z" fill="white"/>
</svg>
